<?xml version="1.0" encoding="UTF-8"?>
<!DOCTYPE svg PUBLIC "-//W3C//DTD SVG 1.1//EN" "http://www.w3.org/Graphics/SVG/1.1/DTD/svg11.dtd">
<svg xmlns="http://www.w3.org/2000/svg" version="1.1" width="500px" height="87px" style="shape-rendering:geometricPrecision; text-rendering:geometricPrecision; image-rendering:optimizeQuality; fill-rule:evenodd; clip-rule:evenodd" xmlns:xlink="http://www.w3.org/1999/xlink">
<g><path style="opacity:1" fill="#010101" d="M -0.5,-0.5 C 166.167,-0.5 332.833,-0.5 499.5,-0.5C 499.5,28.5 499.5,57.5 499.5,86.5C 332.833,86.5 166.167,86.5 -0.5,86.5C -0.5,57.5 -0.5,28.5 -0.5,-0.5 Z"/></g>
<g><path style="opacity:1" fill="#c2c2c2" d="M 56.5,11.5 C 38.8333,11.5 21.1667,11.5 3.5,11.5C 3.5,15.5 3.5,19.5 3.5,23.5C 10.0221,23.1765 16.3554,23.5098 22.5,24.5C 15.8333,24.5 9.16667,24.5 2.5,24.5C 2.5,19.8333 2.5,15.1667 2.5,10.5C 20.6744,10.1699 38.6744,10.5032 56.5,11.5 Z"/></g>
<g><path style="opacity:1" fill="#fcfcfc" d="M 56.5,11.5 C 56.5,15.8333 56.5,20.1667 56.5,24.5C 50.1667,24.5 43.8333,24.5 37.5,24.5C 37.5,42.5 37.5,60.5 37.5,78.5C 32.5,78.5 27.5,78.5 22.5,78.5C 22.5,60.5 22.5,42.5 22.5,24.5C 16.3554,23.5098 10.0221,23.1765 3.5,23.5C 3.5,19.5 3.5,15.5 3.5,11.5C 21.1667,11.5 38.8333,11.5 56.5,11.5 Z"/></g>
<g><path style="opacity:1" fill="#fafafa" d="M 104.5,10.5 C 109.099,10.2 113.599,10.5333 118,11.5C 127.038,33.7389 136.204,55.9056 145.5,78C 139.843,78.4994 134.176,78.6661 128.5,78.5C 127.576,74.0587 126.242,69.7254 124.5,65.5C 115.853,64.3348 107.186,64.1681 98.5,65C 96.8333,69.3333 95.1667,73.6667 93.5,78C 88.1357,78.8295 82.8023,78.6628 77.5,77.5C 86.7895,55.2585 95.7895,32.9251 104.5,10.5 Z"/></g>
<g><path style="opacity:1" fill="#fbfbfb" d="M 171.5,10.5 C 176.5,10.5 181.5,10.5 186.5,10.5C 186.334,20.5056 186.5,30.5056 187,40.5C 193.464,30.405 200.297,20.5716 207.5,11C 213.859,10.1694 220.193,10.3361 226.5,11.5C 217.924,22.3205 209.59,33.3205 201.5,44.5C 210.046,55.7571 218.712,66.9238 227.5,78C 220.833,78.6667 214.167,78.6667 207.5,78C 200.667,68.5 193.833,59 187,49.5C 186.5,59.1609 186.334,68.8276 186.5,78.5C 181.5,78.5 176.5,78.5 171.5,78.5C 171.5,55.8333 171.5,33.1667 171.5,10.5 Z"/></g>
<g><path style="opacity:1" fill="#f8f8f8" d="M 247.5,10.5 C 253.167,10.5 258.833,10.5 264.5,10.5C 266.782,25.5258 269.282,40.5258 272,55.5C 276.638,40.6137 280.804,25.6137 284.5,10.5C 289.833,10.5 295.167,10.5 300.5,10.5C 304.196,25.6137 308.362,40.6137 313,55.5C 315.718,40.5258 318.218,25.5258 320.5,10.5C 326.167,10.5 331.833,10.5 337.5,10.5C 333.168,33.1626 328.834,55.8293 324.5,78.5C 318.463,78.8293 312.463,78.4959 306.5,77.5C 302.225,62.3425 297.558,47.3425 292.5,32.5C 287.294,47.2854 282.794,62.2854 279,77.5C 272.924,78.4764 266.758,78.8097 260.5,78.5C 256.167,55.8333 251.833,33.1667 247.5,10.5 Z"/></g>
<g><path style="opacity:1" fill="#cacaca" d="M 378.5,11.5 C 373.833,11.5 369.167,11.5 364.5,11.5C 364.5,33.8333 364.5,56.1667 364.5,78.5C 363.503,56.0061 363.169,33.3395 363.5,10.5C 368.695,10.1795 373.695,10.5128 378.5,11.5 Z"/></g>
<g><path style="opacity:1" fill="#fefffe" d="M 378.5,11.5 C 378.5,33.8333 378.5,56.1667 378.5,78.5C 373.833,78.5 369.167,78.5 364.5,78.5C 364.5,56.1667 364.5,33.8333 364.5,11.5C 369.167,11.5 373.833,11.5 378.5,11.5 Z"/></g>
<g><path style="opacity:1" fill="#f8f8f8" d="M 418.5,10.5 C 424.537,10.1707 430.537,10.5041 436.5,11.5C 441.154,26.4485 445.654,41.4485 450,56.5C 454.865,41.5717 459.531,26.5717 464,11.5C 470.076,10.5236 476.242,10.1903 482.5,10.5C 486.833,33.1667 491.167,55.8333 495.5,78.5C 489.833,78.5 484.167,78.5 478.5,78.5C 476.111,63.1654 473.611,47.8321 471,32.5C 466.339,47.481 461.839,62.481 457.5,77.5C 452.544,78.4941 447.544,78.8275 442.5,78.5C 438.951,63.6362 434.785,48.9696 430,34.5C 426.951,48.7983 424.117,63.1316 421.5,77.5C 416.208,78.4948 410.875,78.8282 405.5,78.5C 409.191,55.6844 413.524,33.0177 418.5,10.5 Z"/></g>
<g><path style="opacity:1" fill="#0c0c0c" d="M 110.5,29.5 C 111.117,29.6107 111.617,29.944 112,30.5C 114.599,37.462 117.099,44.462 119.5,51.5C 114.208,52.4948 108.875,52.8282 103.5,52.5C 105.625,44.7908 107.958,37.1242 110.5,29.5 Z"/></g>
</svg>
